<svg width="264" height="329" viewBox="0 0 264 329" fill="none" xmlns="http://www.w3.org/2000/svg">
<circle cx="132" cy="132" r="132" fill="url(#paint0_linear_3_5)"/>
<path d="M115.681 276.253L119 279.66L115.681 276.253C115.682 276.252 115.684 276.25 115.685 276.249L115.681 276.253ZM122.658 283.416L156.047 250.895L190.47 321.119L190.47 321.119C191.631 323.486 194.402 324.578 196.864 323.64L196.865 323.64L217.685 315.709L217.685 315.708C220.347 314.694 221.663 311.695 220.605 309.049L193.808 242.057L235.107 247.426L235.108 247.426C239.672 248.019 242.627 242.739 239.729 239.159L123.064 95.0731C120.039 91.3371 114 93.4777 114 98.2824V279.763C114 284.274 119.426 286.565 122.658 283.416ZM231.957 245.452C231.956 245.451 231.955 245.45 231.954 245.449L231.957 245.452L235.658 242.456L231.957 245.452Z" fill="white" stroke="black" stroke-width="10"/>
<defs>
<linearGradient id="paint0_linear_3_5" x1="0" y1="0" x2="127.745" y2="318.628" gradientUnits="userSpaceOnUse">
<stop stop-color="#EA0000"/>
<stop offset="1" stop-color="#64004E"/>
</linearGradient>
</defs>
</svg>
